# xmcd
#
# Track frame offsets:
#	150
#	3132
#	16304
#	28784
#	41771
#	52298
#	62293
#	73993
#	84537
#	97361
#	108603
#	125520
#	134840
#	146323
#	160192
#	169620
#
# Disc length: 2324 seconds
#
# Revision: 1
# Processed by: cddbd v1.5.2PL0 Copyright (c) Steve Scherf et al.
# Submitted via: audiograbber 1.83.01
#
DISCID=e5091210
DTITLE=Ruben and Matt And The Truffle Valley Boys - one thing to tell
DYEAR=2015
DGENRE=
TTITLE0=Theme
TTITLE1=Nashville
TTITLE2=Teardrops Mixed
TTITLE3=The Great Atomic Power
TTITLE4=No Curb Service
TTITLE5=Will I Meet Mother In Heaven
TTITLE6=Lost To A Stranger
TTITLE7=The Lord's Last Supper
TTITLE8=Cabin On The Mountain
TTITLE9=The Touch Of God's Hand
TTITLE10=You'll Always Be My Blue Eyed Darling
TTITLE11=Shake Hand With Mother
TTITLE12=Don't Mind
TTITLE13=He Took Your Place
TTITLE14=You Can't Hide From God
TTITLE15=Rainbow
EXTD=
EXTT0=
EXTT1=
EXTT2=
EXTT3=
EXTT4=
EXTT5=
EXTT6=
EXTT7=
EXTT8=
EXTT9=
EXTT10=
EXTT11=
EXTT12=
EXTT13=
EXTT14=
EXTT15=
PLAYORDER=
